<svg id="Layer_1" data-name="Layer 1" xmlns="http://www.w3.org/2000/svg" width="100" height="100" viewBox="0 0 100 100"><rect x="11.3" y="43.1" width="2.5" height="15.22"/><rect x="60.9" y="43.1" width="2.5" height="15.22"/><rect x="16" y="43.1" width="2.5" height="15.22"/><rect x="32" y="43.1" width="5.1" height="15.22"/><rect x="84.5" y="43.1" width="5.1" height="15.22"/><rect x="39.1" y="43.1" width="1.7" height="15.22"/><rect x="20.8" y="43.1" width="3.8" height="15.22"/><rect x="26.8" y="43.1" width="1.5" height="15.22"/><rect x="29.4" y="43.1" width="0.9" height="15.22"/><rect x="81.3" y="43.1" width="0.9" height="15.22"/><rect x="37.6" y="43.1" width="0.9" height="15.22"/><rect x="42.4" y="43.1" width="1.6" height="15.22"/><rect x="58.2" y="43.1" width="1.6" height="15.22"/><rect x="64.3" y="43.1" width="11" height="15.22"/><rect x="50.6" y="43.1" width="3.1" height="15.22"/><rect x="56.5" y="43.1" width="1" height="15.22"/><rect x="45.7" y="43.1" width="2.4" height="15.22"/><rect x="49.1" y="43.1" width="0.9" height="15.22"/><rect x="76.9" y="43.1" width="0.9" height="15.22"/><rect x="83" y="43.1" width="0.9" height="15.22"/><rect x="19.1" y="43.1" width="0.6" height="15.22"/><rect x="78.4" y="43.1" width="0.6" height="15.22"/><rect x="54.8" y="43.1" width="0.6" height="15.22"/><rect x="9.6" y="43.1" width="0.6" height="15.22"/></svg>