<?xml version="1.0" encoding="UTF-8"?>
<svg id="Layer_2" xmlns="http://www.w3.org/2000/svg" viewBox="0 0 299.18 293.06">
  <defs>
    <style>
      .cls-1 {
        fill: #ffff;
        stroke-width: 0px;
      }
    </style>
  </defs>
  <g id="Elements" transform="rotate(180 149.59 146.53)">
    <g id="_22">
      <path class="cls-1" d="m294.79,176.47c-15.59,66.51-73.25,114.62-139.62,116.52-69.57,1.99-131.86-44.22-149.51-110.96C-12.73,112.54,13.89,52.68,82.3,13.92c-29.28,20.69-48.39,54.79-48.39,93.36,0,63.08,51.13,114.23,114.2,114.23s114.23-51.15,114.23-114.23c0-40.89-21.5-76.77-53.81-96.95,74.27,38.41,102.37,97.5,86.27,166.14Z" />
      <path class="cls-1" d="m147.95,0C98.84,0,59.01,39.82,59.01,88.93s39.82,88.91,88.93,88.91,88.91-39.8,88.91-88.91S197.06,0,147.95,0Zm0,118.77c-31.51,0-57.01-25.53-57.01-57.01S116.44,4.75,147.95,4.75s57.01,25.53,57.01,57.01-25.53,57.01-57.01,57.01Z" />
    </g>
  </g>
</svg>
