<?xml version="1.0" encoding="UTF-8"?>
<svg id="Layer_2" data-name="Layer 2" xmlns="http://www.w3.org/2000/svg" viewBox="0 0 50.61 50.71">
  <defs>
    <style>
      .cls-1 {
        fill: #ffff;
        stroke-width: 0px;
      }
    </style>
  </defs>
  <g id="VECTORS">
    <g>
      <path class="cls-1" d="M38.62,43.58c.08,5.11-4.02,8.03-8.16,6.79-.73-.22-1.58-.5-2.06-1.04-2.11-2.35-3.82-2.05-6.21-.06-2.8,2.33-6.61,1.68-8.76-.83-2.06-2.39-1.87-5.67.67-8.42,2.55-2.76,5.2-5.44,7.9-8.05,2.38-2.31,4.29-2.29,6.72.06,2.7,2.62,5.37,5.28,7.87,8.08,1.06,1.19,1.65,2.81,2.02,3.47Z"/>
      <path class="cls-1" d="M3.54,25.31c-.66-.89-1.35-1.65-1.83-2.53-.61-1.12-1.24-2.29-1.52-3.52-.56-2.46.64-5.17,2.7-6.38,2.22-1.31,4.62-1.37,6.54.32,3.49,3.08,6.84,6.34,10.05,9.71,1.43,1.5,1.19,3.62-.4,5.27-2.88,2.98-5.82,5.92-8.89,8.69-2.42,2.18-5.6,2.23-7.83.45-2.45-1.96-3.1-5.49-1.41-8.43.7-1.21,1.64-2.28,2.6-3.58Z"/>
      <path class="cls-1" d="M38.64,6.94c-.36.66-.93,2.29-1.98,3.48-2.58,2.9-5.33,5.67-8.14,8.36-2.29,2.2-4.1,2.17-6.43-.07-2.8-2.7-5.54-5.47-8.16-8.34-2.38-2.62-2.5-5.8-.56-8.12C15.45-.25,19.27-.74,22.2,1.14c.54.35,1.01.81,1.48,1.26,1.17,1.11,2.27.99,3.4-.08,1.67-1.58,3.62-2.46,5.99-2.25,3.21.28,5.59,2.76,5.58,6.88Z"/>
      <path class="cls-1" d="M47.08,25.32c.79,1.02,1.53,1.89,2.17,2.83,1.98,2.9,1.7,6.78-.59,8.91-2.38,2.21-5.86,2.01-8.73-.66-2.66-2.47-5.25-5.01-7.79-7.61-2.54-2.6-2.54-4.37,0-6.99,2.53-2.6,5.12-5.15,7.79-7.61,2.97-2.75,6.2-2.93,8.7-.65,2.45,2.24,2.63,6.15.41,9.19-.6.82-1.23,1.61-1.98,2.58Z"/>
    </g>
  </g>
</svg>