<svg width="46" height="24" viewBox="0 0 46 24" fill="none" xmlns="http://www.w3.org/2000/svg">
<g clip-path="url(#clip0_30_59)">
<path d="M24.0478 19.9999C19.1367 19.8916 15.2715 19.3424 11.8279 17.2778C10.8647 16.7005 9.93868 15.9508 9.22764 15.0969C7.45005 12.9641 7.63194 10.4504 9.57489 8.4499C11.5757 6.38927 14.1429 5.37097 16.9044 4.73755C21.9767 3.57493 26.9994 3.72728 31.8568 5.61152C33.374 6.20084 34.8498 7.10287 36.0734 8.15323C38.682 10.3983 38.6076 13.5494 36.0817 15.8906C34.1553 17.6747 31.7866 18.6769 29.2359 19.2101C27.2268 19.6311 25.164 19.8355 24.052 19.9959L24.0478 19.9999ZM23.4029 12.3346V16.1512C25.5732 15.9428 27.6485 15.7543 29.7196 15.5378C29.8973 15.5178 30.1454 15.3574 30.2033 15.2051C30.5422 14.291 30.8357 13.361 31.1789 12.3346H23.4029ZM22.6381 12.3587H14.9407C15.073 12.9961 15.1681 13.5654 15.3087 14.1227C15.5402 15.0447 15.9784 15.6862 17.1359 15.6822C18.2231 15.6822 19.3062 15.8826 20.3975 15.9508C21.1375 15.9949 21.8858 15.9588 22.6381 15.9588V12.3587ZM31.2078 11.6331C30.8275 10.5627 30.658 9.52432 30.104 8.74657C29.8147 8.34166 28.8432 8.39377 28.1818 8.23742C28.1239 8.2254 28.0619 8.21337 27.9999 8.20936C26.4662 8.11314 24.9366 8.01292 23.3698 7.9167V11.6331H31.2037H31.2078ZM14.8126 11.6812H22.6051V7.84855C20.4844 8.04499 18.4587 8.21738 16.4372 8.43387C16.1851 8.46193 15.8295 8.67441 15.7469 8.88688C15.4037 9.74882 15.1474 10.6468 14.8126 11.6812ZM17.7146 5.21061C14.6142 5.54737 9.87667 7.98486 9.58729 9.61653C11.1541 9.13945 12.8283 8.64233 14.4943 8.12116C14.9118 7.98886 15.4244 7.90067 15.6973 7.61202C16.5116 6.74607 17.2309 5.79593 17.7146 5.2066V5.21061ZM36.429 9.62054C36.09 7.98486 30.5712 5.06228 27.789 5.21863C28.4959 5.8721 29.3062 6.50152 29.9469 7.26323C30.3686 7.76436 30.8399 7.96882 31.4352 8.13319C33.1466 8.61026 34.8374 9.14346 36.4248 9.62454L36.429 9.62054ZM9.48395 14.3592C10.596 16.5241 15.2343 18.5647 18.2024 18.8252C17.4128 18.0315 16.5447 17.1415 15.6476 16.2795C15.4906 16.1272 15.2343 16.043 15.011 15.9788C13.1425 15.4256 11.2698 14.8844 9.48395 14.3632V14.3592ZM28.2314 18.8012C31.584 18.3762 36.0362 15.9708 36.4703 14.3552C34.7878 14.8603 32.9854 15.3975 31.1871 15.9468C30.8812 16.039 30.5133 16.1272 30.319 16.3397C29.5046 17.2377 28.7481 18.1798 28.2314 18.8012ZM8.87212 12.3427C9.35579 13.6616 12.9978 15.3334 14.9159 15.173C14.6803 14.2429 14.4405 13.3088 14.1966 12.3427H8.87212ZM37.3715 12.3787H31.8072C31.5468 13.373 31.307 14.275 31.0342 15.3214C33.3161 14.7601 35.6022 14.4073 37.3715 12.3787ZM29.517 7.68017C27.7725 5.77188 25.8461 4.76962 23.3781 4.74557V7.23918C25.3789 7.3835 27.3302 7.51981 29.517 7.67616V7.68017ZM23.4112 16.7406V19.3063C25.875 19.1179 27.8469 18.2319 29.4798 16.3156C27.3426 16.4639 25.3872 16.6042 23.4112 16.7446V16.7406ZM16.4992 16.3156C18.2148 18.2279 20.1743 19.178 22.6216 19.2823V16.7486C20.6001 16.6042 18.6448 16.4679 16.4992 16.3156ZM14.9655 8.63031C12.6795 9.28779 10.3521 9.58045 8.61168 11.6331H14.1966C14.4488 10.6468 14.6886 9.71675 14.9655 8.63031ZM31.8072 11.621H37.1276C36.6067 10.3221 32.8283 8.61828 31.0796 8.81873C31.3153 9.72076 31.5509 10.6268 31.8072 11.621ZM22.6423 4.72953C20.0999 4.80971 18.1694 5.79593 16.5116 7.67616C18.6613 7.52382 20.6332 7.3835 22.6423 7.23918V4.72953Z" fill="white"/>
</g>
<path d="M45.75 12C45.75 15.1736 43.2796 18.1079 39.1478 20.2636C35.0281 22.4131 29.3194 23.75 23 23.75C16.6806 23.75 10.9719 22.4131 6.85219 20.2636C2.72035 18.1079 0.25 15.1736 0.25 12C0.25 8.82642 2.72035 5.8921 6.85219 3.73636C10.9719 1.58693 16.6806 0.25 23 0.25C29.3194 0.25 35.0281 1.58693 39.1478 3.73636C43.2796 5.8921 45.75 8.82642 45.75 12Z" stroke="white" stroke-width="0.5"/>
<defs>
<clipPath id="clip0_30_59">
<rect width="30" height="16" fill="white" transform="translate(8 4)"/>
</clipPath>
</defs>
</svg>
