<svg width="112" height="24" viewBox="0 0 112 24" fill="none" xmlns="http://www.w3.org/2000/svg">
<path fill-rule="evenodd" clip-rule="evenodd" d="M39.5 20.3601C35.3205 22.6051 29.4725 24 23 24C10.2975 24 0 18.6274 0 12C0 5.37258 10.2975 0 23 0C29.4725 0 35.3205 1.3949 39.5 3.63994C39.2325 3.78362 38.9719 3.93078 38.7183 4.08128C34.745 1.93483 29.1713 0.600006 23 0.600006C10.9326 0.600006 1.15002 5.70396 1.15002 12C1.15002 18.2961 10.9326 23.4 23 23.4C29.1713 23.4 34.745 22.0652 38.7183 19.9187C38.9719 20.0692 39.2325 20.2164 39.5 20.3601ZM34.9464 16.8387C34.6109 17.0723 34.2477 17.298 33.8569 17.5144C30.6566 19.2849 26.9416 19.9706 22.9209 19.9996C19.0123 19.9525 15.3738 19.2704 12.2092 17.547C6.64947 14.5212 6.59342 9.60869 12.0614 6.51753C17.9676 3.17604 27.9405 3.1579 33.8773 6.474C34.2643 6.69032 34.6242 6.91575 34.9568 7.14898C34.7788 7.35885 34.612 7.57189 34.4568 7.78787C33.9545 7.36771 33.3402 6.9971 32.7001 6.68443C29.7852 5.25495 26.5136 4.65631 22.9209 4.67082L22.9311 4.66357C19.634 4.63817 16.4796 5.20415 13.631 6.51391C12.8615 6.86583 12.1684 7.31209 11.5059 7.76561C10.9963 8.1139 10.7517 8.61821 11.2562 9.02819C11.5926 9.30393 12.1939 9.44905 12.7137 9.56878C12.9312 9.61946 13.2009 9.57181 13.4608 9.52588L13.4609 9.52588C13.5359 9.51263 13.61 9.49952 13.6819 9.48896C19.8888 8.54202 26.0957 8.53477 32.3026 9.48896C32.372 9.4995 32.4437 9.51171 32.5166 9.52413C32.8453 9.58008 33.1976 9.64005 33.4645 9.56878C33.4674 9.56801 33.4703 9.56723 33.4732 9.56645C33.3274 9.93575 33.2142 10.3112 33.135 10.6921C32.6912 10.5088 32.1747 10.3866 31.6962 10.2835C29.8769 9.89531 28.0067 9.58329 26.1263 9.40914C22.3604 9.06084 18.6199 9.2749 14.9916 10.1021C14.0692 10.3125 13.1519 10.6463 12.3926 11.0672C11.3429 11.6477 11.3327 12.3987 12.4232 12.9429C13.3711 13.4182 14.4769 13.8427 15.598 14.0132C17.316 14.2768 19.0567 14.4501 20.7989 14.6236L20.7989 14.6236L20.7992 14.6236L20.7995 14.6236C21.5268 14.696 22.2544 14.7685 22.9806 14.8475C26.0114 14.7169 28.9506 14.4882 31.7522 13.7048C31.8206 13.6856 31.8899 13.6664 31.9598 13.6471C32.352 13.5384 32.7633 13.4245 33.1284 13.2756C33.2046 13.6517 33.314 14.0226 33.4552 14.3875C33.1743 14.3847 32.8715 14.4147 32.5523 14.4486L31.9879 14.5073L31.9879 14.5073C29.377 14.779 26.7569 15.0517 24.1236 15.1633C20.4901 15.3193 16.872 15.0726 13.3303 14.4377C12.4946 14.289 11.7404 14.3035 11.2562 14.8949C10.7721 15.4899 11.0983 15.9797 11.7302 16.4005C12.1124 16.6581 12.5098 16.9121 12.9328 17.1334C15.9191 18.6935 19.3283 19.2885 23.0432 19.372V19.3683C27.0996 19.274 30.9216 18.5556 34.0811 16.5348C34.2227 16.4442 34.3616 16.3511 34.4868 16.2536C34.6304 16.4512 34.7837 16.6463 34.9464 16.8387Z" fill="white"/>
<path fill-rule="evenodd" clip-rule="evenodd" d="M72.5 20.3601C68.3205 22.6051 62.4725 24 56 24C43.2975 24 33 18.6274 33 12C33 5.37258 43.2975 0 56 0C62.4725 0 68.3205 1.3949 72.5 3.63994C72.2325 3.78362 71.9719 3.93078 71.7183 4.08128C67.745 1.93483 62.1713 0.600006 56 0.600006C43.9326 0.600006 34.15 5.70396 34.15 12C34.15 18.2961 43.9326 23.4 56 23.4C62.1713 23.4 67.745 22.0652 71.7183 19.9187C71.9719 20.0692 72.2325 20.2164 72.5 20.3601ZM67.9464 16.8387C67.6109 17.0723 67.2477 17.298 66.8569 17.5144C63.6566 19.2849 59.9416 19.9706 55.9209 19.9996C52.0123 19.9525 48.3738 19.2704 45.2092 17.547C39.6495 14.5212 39.5934 9.60869 45.0614 6.51753C50.9676 3.17604 60.9405 3.1579 66.8773 6.474C67.2643 6.69032 67.6242 6.91575 67.9568 7.14898C67.7788 7.35885 67.612 7.57189 67.4568 7.78787C66.9545 7.36771 66.3402 6.9971 65.7001 6.68443C62.7852 5.25495 59.5136 4.65631 55.9209 4.67082L55.9311 4.66357C52.634 4.63817 49.4796 5.20415 46.631 6.51391C45.8615 6.86583 45.1684 7.31209 44.5059 7.76561C43.9963 8.1139 43.7517 8.61821 44.2562 9.02819C44.5926 9.30393 45.1939 9.44905 45.7137 9.56878C45.9312 9.61946 46.2009 9.57181 46.4608 9.52588L46.4609 9.52588C46.5359 9.51263 46.61 9.49952 46.6819 9.48896C52.8888 8.54202 59.0957 8.53477 65.3026 9.48896C65.372 9.4995 65.4437 9.51171 65.5166 9.52413C65.8453 9.58008 66.1976 9.64005 66.4645 9.56878C66.4674 9.56801 66.4703 9.56723 66.4732 9.56645C66.3274 9.93575 66.2142 10.3112 66.135 10.6921C65.6912 10.5088 65.1747 10.3866 64.6962 10.2835C62.8769 9.89531 61.0067 9.58329 59.1263 9.40914C55.3604 9.06084 51.6199 9.2749 47.9916 10.1021C47.0692 10.3125 46.1519 10.6463 45.3926 11.0672C44.3429 11.6477 44.3327 12.3987 45.4232 12.9429C46.3711 13.4182 47.4769 13.8427 48.598 14.0132C50.316 14.2768 52.0567 14.4501 53.7989 14.6236L53.7989 14.6236L53.7992 14.6236L53.7995 14.6236C54.5268 14.696 55.2544 14.7685 55.9806 14.8475C59.0114 14.7169 61.9506 14.4882 64.7522 13.7048C64.8206 13.6856 64.8899 13.6664 64.9598 13.6471C65.352 13.5384 65.7633 13.4245 66.1284 13.2756C66.2046 13.6517 66.314 14.0226 66.4552 14.3875C66.1743 14.3847 65.8715 14.4147 65.5523 14.4486L64.9879 14.5073L64.9879 14.5073C62.377 14.779 59.7569 15.0517 57.1236 15.1633C53.4901 15.3193 49.872 15.0726 46.3303 14.4377C45.4946 14.289 44.7404 14.3035 44.2562 14.8949C43.7721 15.4899 44.0983 15.9797 44.7302 16.4005C45.1124 16.6581 45.5098 16.9121 45.9328 17.1334C48.9191 18.6935 52.3283 19.2885 56.0432 19.372V19.3683C60.0996 19.274 63.9216 18.5556 67.0811 16.5348C67.2227 16.4442 67.3616 16.3511 67.4868 16.2536C67.6304 16.4512 67.7837 16.6463 67.9464 16.8387Z" fill="white"/>
<path fill-rule="evenodd" clip-rule="evenodd" d="M89 24C101.703 24 112 18.6274 112 12C112 5.37258 101.703 0 89 0C76.2975 0 66 5.37258 66 12C66 18.6274 76.2975 24 89 24ZM89 23.4C101.067 23.4 110.85 18.2961 110.85 12C110.85 5.70396 101.067 0.600006 89 0.600006C76.9326 0.600006 67.15 5.70396 67.15 12C67.15 18.2961 76.9326 23.4 89 23.4Z" fill="white"/>
<path d="M88.9209 19.9996C85.0123 19.9525 81.3738 19.2704 78.2092 17.547C72.6495 14.5212 72.5934 9.60869 78.0614 6.51753C83.9676 3.17604 93.9405 3.1579 99.8773 6.474C105.376 9.54701 105.381 14.4559 99.8569 17.5144C96.6566 19.2849 92.9416 19.9706 88.9209 19.9996ZM88.977 14.8477C92.0091 14.7171 94.9495 14.4885 97.7522 13.7048C98.8886 13.3856 100.295 13.0663 100.27 11.9742C100.244 10.8967 98.8581 10.5339 97.6962 10.2835C95.8769 9.89531 94.0067 9.58329 92.1263 9.40914C88.3604 9.06084 84.6199 9.2749 80.9916 10.1021C80.0692 10.3125 79.1519 10.6463 78.3926 11.0672C77.3429 11.6477 77.3327 12.3987 78.4232 12.9429C79.3711 13.4182 80.4769 13.8427 81.598 14.0132C84.0339 14.3869 86.5156 14.5792 88.9821 14.8477H88.977ZM89.0432 19.3683C93.0996 19.274 96.9216 18.5556 100.081 16.5348C100.733 16.1175 101.33 15.6459 100.779 14.9493C100.259 14.2853 99.4747 14.3506 98.5523 14.4486C95.7546 14.7388 92.9467 15.0436 90.1236 15.1633C86.4901 15.3193 82.872 15.0726 79.3303 14.4377C78.4946 14.289 77.7404 14.3035 77.2562 14.8949C76.7721 15.4899 77.0983 15.9797 77.7302 16.4005C78.1124 16.6581 78.5098 16.9121 78.9328 17.1334C81.919 18.6935 85.3283 19.2885 89.0432 19.372V19.3683ZM88.9311 4.66357C85.634 4.63817 82.4796 5.20415 79.631 6.51391C78.8615 6.86583 78.1684 7.31209 77.5059 7.76561C76.9963 8.11391 76.7517 8.61821 77.2562 9.02819C77.5926 9.30393 78.1939 9.44905 78.7137 9.56878C78.994 9.63409 79.3609 9.53613 79.6819 9.48896C85.8888 8.54202 92.0957 8.53477 98.3026 9.48896C98.6848 9.54701 99.1383 9.65586 99.4645 9.56878C99.969 9.43454 100.565 9.21685 100.8 8.90846C100.988 8.66538 100.861 8.14293 100.591 7.90347C100.066 7.43545 99.3982 7.02547 98.7001 6.68443C95.7852 5.25495 92.5136 4.65631 88.9209 4.67082L88.9311 4.66357Z" fill="white"/>
<circle cx="17" cy="12" r="2" fill="#FF3BC4"/>
<circle cx="56" cy="12" r="2" fill="#FF3BC4"/>
<circle cx="95" cy="12" r="2" fill="#FF3BC4"/>
</svg>
