<svg width="27" height="52" viewBox="0 0 27 52" fill="none" xmlns="http://www.w3.org/2000/svg">
<g clip-path="url(#clip0_44_201)">
<path d="M26.9361 0.0318909V5.4233H21.5361V0.0318909L26.9361 0.0318909Z" fill="#FFA2E3"/>
<path d="M21.5361 5.42331V10.8147H16.1361V5.42331H21.5361Z" fill="#FF6BD3"/>
<path d="M10.7521 5.42331V10.8147H5.35207V5.42331H10.7521Z" fill="#FF6BD3"/>
<path d="M5.35207 0.0318909V5.4233H-0.0479347V0.0318909L5.35207 0.0318909Z" fill="#FFA2E3"/>
<path d="M16.1521 10.8147V16.2061H10.7521V10.8147H16.1521Z" fill="#FF3BC4"/>
<path d="M26.9361 17.8969V23.2884H21.5361V17.8969H26.9361Z" fill="#FFA2E3"/>
<path d="M21.5361 23.2884V28.6798H16.1361V23.2884H21.5361Z" fill="#FF6BD3"/>
<path d="M10.7521 23.2884V28.6798H5.35207V23.2884H10.7521Z" fill="#FF6BD3"/>
<path d="M5.35207 17.8969V23.2884H-0.0479347V17.8969H5.35207Z" fill="#FFA2E3"/>
<path d="M16.1521 28.6798V34.0712H10.7521V28.6798H16.1521Z" fill="#FF3BC4"/>
<path d="M26.9361 35.762V41.1534H21.5361V35.762H26.9361Z" fill="#FFA2E3"/>
<path d="M21.5361 41.1534V46.5448H16.1361V41.1534H21.5361Z" fill="#FF6BD3"/>
<path d="M10.7521 41.1534V46.5448H5.35207V41.1534H10.7521Z" fill="#FF6BD3"/>
<path d="M5.35207 35.762V41.1534H-0.0479347V35.762H5.35207Z" fill="#FFA2E3"/>
<path d="M16.1521 46.5448V51.9362H10.7521V46.5448H16.1521Z" fill="#FF3BC4"/>
</g>
<defs>
<clipPath id="clip0_44_201">
<rect width="27" height="52" fill="white"/>
</clipPath>
</defs>
</svg>
