<svg width="35" height="24" viewBox="0 0 35 24" fill="none" xmlns="http://www.w3.org/2000/svg">
<path d="M17.0924 1.8408L17.491 1.60854L17.5 1.61321L17.6147 1.55393C19.2277 0.720677 21.0585 0.25 23 0.25C29.4893 0.25 34.75 5.51065 34.75 12C34.75 18.4893 29.4893 23.75 23 23.75C21.0585 23.75 19.2277 23.2793 17.6147 22.4461L17.5 22.3868L17.491 22.3915L17.0924 22.1592C13.5978 20.1226 11.25 16.3353 11.25 12C11.25 7.66469 13.5978 3.87744 17.0924 1.8408ZM17.0747 22.6006L17.1213 22.5782C15.7651 23.2361 14.2632 23.6408 12.6767 23.7308C14.2444 23.6418 15.7303 23.2453 17.0747 22.6006ZM17.1213 1.42177L17.0747 1.39939C15.6748 0.728068 14.1215 0.325905 12.4822 0.259717C14.1405 0.326626 15.7098 0.737106 17.1213 1.42177Z" stroke="white" stroke-width="0.5"/>
<path d="M19.1702 9.16998C19.1702 10.6248 20.4515 12 22.0002 12" stroke="white" stroke-width="0.5" stroke-linecap="square"/>
<path d="M19.1702 14.83C19.1702 13.3752 20.4515 12 22.0002 12" stroke="white" stroke-width="0.5" stroke-linecap="square"/>
<path d="M24.1702 9.16998C24.1702 10.6248 25.4515 12 27.0002 12" stroke="white" stroke-width="0.5" stroke-linecap="square"/>
<path d="M24.1702 14.83C24.1702 13.3752 25.4515 12 27.0002 12" stroke="white" stroke-width="0.5" stroke-linecap="square"/>
</svg>
