<svg width="37" height="26" viewBox="0 0 37 26" fill="none" xmlns="http://www.w3.org/2000/svg">
<path d="M20.1702 10.17C20.1702 11.6248 21.4515 13 23.0002 13C21.4515 13 20.1702 14.3752 20.1702 15.83M25.1702 10.17C25.1702 11.6248 26.4515 13 28.0002 13C26.4515 13 25.1702 14.3752 25.1702 15.83M1.5 13C1.5 19.3513 6.64873 24.5 13 24.5C14.7787 24.5 16.4631 24.0962 17.9666 23.3752C14.3982 21.2956 12 17.4279 12 13C12 8.57213 14.3982 4.70438 17.9666 2.62481C16.4631 1.90383 14.7787 1.5 13 1.5C6.64873 1.5 1.5 6.64873 1.5 13ZM13 25C14.9823 25 16.8524 24.5193 18.5 23.6682C20.1476 24.5193 22.0177 25 24 25C30.6274 25 36 19.6274 36 13C36 6.37258 30.6274 1 24 1C22.0177 1 20.1476 1.48067 18.5 2.33182C16.8524 1.48067 14.9823 1 13 1C6.37258 1 1 6.37258 1 13C1 19.6274 6.37258 25 13 25Z" stroke="white" stroke-width="0.5" stroke-linecap="square"/>
</svg>
