<?xml version="1.0" encoding="UTF-8"?>
<svg id="Layer_2" data-name="Layer 2" xmlns="http://www.w3.org/2000/svg" viewBox="0 0 51 49.88">
  <defs>
    <style>
      .cls-1 {
        fill: #000;
        stroke-width: 0px;
      }
    </style>
  </defs>
  <g id="VECTORS">
    <path class="cls-1" d="M44.53,8.13c-1.57,2.8-3.14,5.6-4.69,8.41-1.74,3.16-1.58,3.56,1.81,4.57,2.36.7,4.76,1.27,7.08,2.08.86.3,2.08.97,2.22,1.66.33,1.59-1.31,1.65-2.35,1.96-2.48.74-5.01,1.31-7.49,2.05-2.63.79-2.9,1.46-1.58,3.93,1.59,2.96,3.28,5.86,4.84,8.63-.62,1.83-1.72,1.79-2.88,1.18-1.95-1.03-3.84-2.17-5.76-3.24-1.23-.68-2.49-1.33-4.2-2.24-.63,1.28-1.31,2.31-1.67,3.45-.77,2.47-1.3,5.02-2.11,7.48-.24.72-1.09,1.23-1.65,1.84-.57-.62-1.42-1.14-1.67-1.87-.74-2.2-1.2-4.5-1.87-6.73-.39-1.3-.98-2.55-1.51-3.89-4.85.98-7.93,5.34-13.61,5.51.82-1.81,1.25-2.96,1.83-4.03,1.17-2.17,2.49-4.25,3.61-6.45,1.01-2,.67-2.81-1.45-3.46-2.35-.73-4.77-1.23-7.12-1.93-1.17-.35-2.28-.92-4.32-1.77,1.54-1.01,2.24-1.71,3.08-1.97,2.72-.86,5.5-1.5,8.22-2.33,2.4-.74,2.66-1.38,1.47-3.69-1.31-2.53-2.84-4.95-4.13-7.49-.34-.68-.16-1.63-.21-2.45.84.02,1.81-.24,2.49.1,2.21,1.08,4.3,2.4,6.45,3.6,3.67,2.04,4.03,1.89,5.18-2.26.62-2.25,1.12-4.53,1.84-6.74.25-.76,1-1.35,1.53-2.02.65.67,1.62,1.22,1.9,2.02.78,2.19,1.25,4.49,1.91,6.72.35,1.2.84,2.36,1.32,3.71,4.91-.79,8.1-5.26,12.77-5.58.24.42.48.83.72,1.25Z"/>
  </g>
</svg>